<svg width="32" height="32" viewBox="0 0 32 32" fill="none" xmlns="http://www.w3.org/2000/svg">
<path fill-rule="evenodd" clip-rule="evenodd" d="M10.5804 12C9.56128 12 8.70515 12.7663 8.59261 13.7791L7.60488 22.6687C7.40742 24.4458 8.7985 26 10.5865 26H21.4139C23.2019 26 24.593 24.4458 24.3955 22.6687L23.4078 13.7791C23.2953 12.7663 22.4391 12 21.42 12H10.5804ZM6.60484 13.5583C6.82992 11.5325 8.54218 10 10.5804 10H21.42C23.4582 10 25.1705 11.5325 25.3956 13.5583L26.3833 22.4478C26.7124 25.4097 24.3939 28 21.4139 28H10.5865C7.60647 28 5.28802 25.4097 5.61711 22.4478L6.60484 13.5583Z" fill="#181818"/>
<path fill-rule="evenodd" clip-rule="evenodd" d="M13 9C13 7.34315 14.3431 6 16 6C17.6569 6 19 7.34315 19 9V14H21V9C21 6.23858 18.7614 4 16 4C13.2386 4 11 6.23858 11 9V14H13V9Z" fill="#181818"/>
</svg>
