<svg width="32" height="32" viewBox="0 0 32 32" fill="none" xmlns="http://www.w3.org/2000/svg">
<path d="M2.84873 13.6687C3.01754 12.1494 4.30173 11 5.83038 11H26.3702C27.9146 11 29.2067 12.1725 29.3562 13.7097L30.2217 22.6129C30.4503 24.9639 28.6026 27 26.2405 27H5.83653C3.45249 27 1.59772 24.9277 1.861 22.5583L2.84873 13.6687Z" stroke="#181818" stroke-width="2"/>
<path fill-rule="evenodd" clip-rule="evenodd" d="M9 14V13.0002C9 9.13407 12.134 6 16 6C19.866 6 23 9.13406 23 13.0002V14H25V13.0002C25 8.02954 20.9706 4 16 4C11.0294 4 7 8.02955 7 13.0002V14H9Z" fill="#181818"/>
<rect x="12" y="16" width="20" height="16" rx="4" fill="#FF0000"/>
<path d="M19.4659 27.0795C19.0417 27.0795 18.6638 27.0066 18.3324 26.8608C18.0028 26.7131 17.7424 26.5104 17.5511 26.2528C17.3617 25.9934 17.2642 25.6941 17.2585 25.3551H18.4972C18.5047 25.4972 18.5511 25.6222 18.6364 25.7301C18.7235 25.8362 18.839 25.9186 18.983 25.9773C19.1269 26.036 19.2888 26.0653 19.4688 26.0653C19.6562 26.0653 19.822 26.0322 19.9659 25.9659C20.1098 25.8996 20.2225 25.8078 20.304 25.6903C20.3854 25.5729 20.4261 25.4375 20.4261 25.2841C20.4261 25.1288 20.3826 24.9915 20.2955 24.8722C20.2102 24.7509 20.0871 24.6562 19.9261 24.5881C19.767 24.5199 19.5777 24.4858 19.358 24.4858H18.8153V23.5824H19.358C19.5436 23.5824 19.7074 23.5502 19.8494 23.4858C19.9934 23.4214 20.1051 23.3324 20.1847 23.2188C20.2642 23.1032 20.304 22.9688 20.304 22.8153C20.304 22.6695 20.2689 22.5417 20.1989 22.4318C20.1307 22.3201 20.0341 22.233 19.9091 22.1705C19.786 22.108 19.642 22.0767 19.4773 22.0767C19.3106 22.0767 19.1581 22.107 19.0199 22.1676C18.8816 22.2263 18.7708 22.3106 18.6875 22.4205C18.6042 22.5303 18.5597 22.6591 18.554 22.8068H17.375C17.3807 22.4716 17.4763 22.1761 17.6619 21.9205C17.8475 21.6648 18.0975 21.465 18.4119 21.321C18.7282 21.1752 19.0852 21.1023 19.483 21.1023C19.8845 21.1023 20.2358 21.1752 20.5369 21.321C20.8381 21.4669 21.072 21.6638 21.2386 21.9119C21.4072 22.1581 21.4905 22.4347 21.4886 22.7415C21.4905 23.0672 21.3892 23.339 21.1847 23.5568C20.982 23.7746 20.7178 23.9129 20.392 23.9716V24.017C20.8201 24.072 21.1458 24.2206 21.3693 24.4631C21.5947 24.7036 21.7064 25.0047 21.7045 25.3665C21.7064 25.6979 21.6108 25.9924 21.4176 26.25C21.2263 26.5076 20.9621 26.7102 20.625 26.858C20.2879 27.0057 19.9015 27.0795 19.4659 27.0795ZM22.5888 27V26.1136L24.6598 24.196C24.8359 24.0256 24.9837 23.8722 25.103 23.7358C25.2242 23.5994 25.3161 23.4659 25.3786 23.3352C25.4411 23.2027 25.4723 23.0597 25.4723 22.9062C25.4723 22.7358 25.4335 22.589 25.3558 22.4659C25.2782 22.3409 25.1721 22.2453 25.0376 22.179C24.9032 22.1108 24.7507 22.0767 24.5803 22.0767C24.4022 22.0767 24.2469 22.1127 24.1143 22.1847C23.9818 22.2566 23.8795 22.3598 23.8075 22.4943C23.7356 22.6288 23.6996 22.7888 23.6996 22.9744H22.532C22.532 22.5937 22.6181 22.2633 22.7905 21.983C22.9628 21.7027 23.2043 21.4858 23.5149 21.3324C23.8255 21.179 24.1835 21.1023 24.5888 21.1023C25.0054 21.1023 25.3681 21.1761 25.6768 21.3239C25.9875 21.4697 26.2289 21.6723 26.4013 21.9318C26.5736 22.1913 26.6598 22.4886 26.6598 22.8239C26.6598 23.0436 26.6162 23.2604 26.5291 23.4744C26.4439 23.6884 26.2914 23.9261 26.0717 24.1875C25.852 24.447 25.5424 24.7585 25.1428 25.1222L24.2933 25.9545V25.9943H26.7365V27H22.5888Z" fill="white"/>
</svg>
