<svg width="32" height="32" viewBox="0 0 32 32" fill="none" xmlns="http://www.w3.org/2000/svg">
<path d="M20.339 9.98848L20.5592 10.3475L20.9699 10.4408L29.1331 12.2962L23.651 18.4939L23.366 18.8161L23.4039 19.2446L24.1289 27.4424L16.3839 24.2223L16 24.0627L15.6161 24.2223L7.87114 27.4424L8.59611 19.2446L8.634 18.8161L8.34902 18.4939L2.86686 12.2962L11.0301 10.4408L11.4408 10.3475L11.661 9.98848L16 2.91289L20.339 9.98848Z" stroke="#181818" stroke-width="2"/>
<rect x="16" y="16" width="16" height="16" rx="4" fill="#FF0000"/>
<path d="M22.4052 21.1818V27H21.1751V22.3494H21.141L19.8086 23.1847V22.0938L21.2489 21.1818H22.4052ZM26.021 27.0795C25.7217 27.0777 25.4329 27.0275 25.1545 26.929C24.878 26.8305 24.6299 26.6705 24.4102 26.4489C24.1905 26.2273 24.0162 25.9337 23.8874 25.5682C23.7605 25.2027 23.6971 24.7538 23.6971 24.2216C23.699 23.733 23.7549 23.2964 23.8647 22.9119C23.9764 22.5256 24.1355 22.1979 24.342 21.929C24.5503 21.66 24.7994 21.4555 25.0891 21.3153C25.3789 21.1733 25.7037 21.1023 26.0636 21.1023C26.4518 21.1023 26.7946 21.178 27.092 21.3295C27.3893 21.4792 27.628 21.6828 27.8079 21.9403C27.9897 22.1979 28.0996 22.4867 28.1374 22.8068H26.9244C26.877 22.6042 26.7776 22.4451 26.6261 22.3295C26.4746 22.214 26.2871 22.1562 26.0636 22.1562C25.6848 22.1562 25.3969 22.321 25.1999 22.6506C25.0049 22.9801 24.9054 23.428 24.9016 23.9943H24.9414C25.0285 23.822 25.146 23.6752 25.2937 23.554C25.4433 23.4309 25.6128 23.3371 25.8022 23.2727C25.9935 23.2064 26.1952 23.1733 26.4073 23.1733C26.752 23.1733 27.0588 23.2547 27.3278 23.4176C27.5967 23.5786 27.8088 23.8002 27.9641 24.0824C28.1194 24.3646 28.1971 24.6875 28.1971 25.0511C28.1971 25.4451 28.1052 25.7955 27.9215 26.1023C27.7397 26.4091 27.485 26.6496 27.1573 26.8239C26.8316 26.9962 26.4528 27.0814 26.021 27.0795ZM26.0153 26.1136C26.2047 26.1136 26.3742 26.0682 26.5238 25.9773C26.6734 25.8864 26.7908 25.7633 26.8761 25.608C26.9613 25.4527 27.0039 25.2784 27.0039 25.0852C27.0039 24.892 26.9613 24.7187 26.8761 24.5653C26.7927 24.4119 26.6772 24.2898 26.5295 24.1989C26.3817 24.108 26.2132 24.0625 26.0238 24.0625C25.8817 24.0625 25.7501 24.089 25.6289 24.142C25.5096 24.1951 25.4045 24.2689 25.3136 24.3636C25.2246 24.4583 25.1545 24.5682 25.1033 24.6932C25.0522 24.8163 25.0266 24.9479 25.0266 25.0881C25.0266 25.2756 25.0692 25.447 25.1545 25.6023C25.2416 25.7576 25.359 25.8816 25.5067 25.9744C25.6564 26.0672 25.8259 26.1136 26.0153 26.1136Z" fill="#EDEDED"/>
</svg>
