<svg width="48" height="48" viewBox="0 0 48 48" fill="none" xmlns="http://www.w3.org/2000/svg">
<g clip-path="url(#clip0_698_372)">
<path d="M12.2504 44.3564L12.071 44.2526L11.8708 44.3062L0.740139 47.2844L3.97838 36.6321L4.0436 36.4175L3.92677 36.2261C1.75276 32.6646 0.5 28.4793 0.5 24C0.5 11.0213 11.0213 0.5 24 0.5C36.9787 0.5 47.5 11.0213 47.5 24C47.5 36.9787 36.9787 47.5 24 47.5C19.7188 47.5 15.7064 46.3556 12.2504 44.3564Z" stroke="white" stroke-opacity="0.48"/>
<path d="M36.9058 29.8448C36.7465 29.5791 36.3202 29.4206 35.6787 29.1013C35.0394 28.7821 31.8942 27.2417 31.3065 27.0296C30.721 26.8174 30.2948 26.7103 29.8664 27.3488C29.4401 27.9851 28.2131 29.4206 27.8407 29.8448C27.4683 30.269 27.0937 30.3226 26.4543 30.0033C25.815 29.6841 23.7527 29.0135 21.3093 26.8432C19.4085 25.1549 18.1233 23.0702 17.7509 22.4318C17.3785 21.7955 17.7122 21.4505 18.0308 21.1334C18.3192 20.8485 18.6701 20.39 18.9909 20.0172C19.3159 19.6487 19.4214 19.383 19.6367 18.9567C19.8498 18.5324 19.7443 18.1597 19.5829 17.8404C19.4214 17.5233 18.1427 14.3889 17.611 13.1141C17.09 11.8736 16.5626 12.0407 16.1708 12.0214L14.9438 12C14.5175 12 13.8244 12.1585 13.2388 12.797C12.6533 13.4355 11 14.9738 11 18.1082C11 21.2427 13.2926 24.27 13.6112 24.6942C13.932 25.1185 18.1212 31.5502 24.5384 34.3076C26.0647 34.9632 27.2573 35.3553 28.1851 35.6488C29.7178 36.133 31.1128 36.0644 32.215 35.9016C33.4442 35.7195 35.9995 34.3611 36.5333 32.8743C37.0672 31.3852 37.0672 30.1105 36.9058 29.8448Z" fill="white"/>
</g>
<defs>
<clipPath id="clip0_698_372">
<rect width="48" height="48" fill="white"/>
</clipPath>
</defs>
</svg>
