<svg width="48" height="48" viewBox="0 0 48 48" fill="none" xmlns="http://www.w3.org/2000/svg">
<g clip-path="url(#clip0_613_3591)">
<path d="M47.5 24C47.5 36.9787 36.9787 47.5 24 47.5C11.0213 47.5 0.5 36.9787 0.5 24C0.5 11.0213 11.0213 0.5 24 0.5C36.9787 0.5 47.5 11.0213 47.5 24Z" stroke="#181818" stroke-opacity="0.88"/>
<path d="M37.3575 17.126C37.5521 16.4769 37.3575 16 36.4311 16H33.3679C32.5891 16 32.23 16.412 32.0352 16.8663C32.0352 16.8663 30.4775 20.6633 28.2707 23.1297C27.5568 23.8436 27.2322 24.0708 26.8428 24.0708C26.6481 24.0708 26.3663 23.8436 26.3663 23.1946V17.126C26.3663 16.3471 26.1402 16 25.4911 16H20.6775C20.1908 16 19.898 16.3615 19.898 16.7041C19.898 17.4425 21.0014 17.6127 21.1151 19.6897V24.2006C21.1151 25.1896 20.9365 25.3689 20.547 25.3689C19.5086 25.3689 16.9826 21.555 15.4844 17.1909C15.1908 16.3426 14.8963 16 14.1135 16H11.0503C10.175 16 10 16.412 10 16.8663C10 17.6777 11.0385 21.7018 14.8354 27.024C17.3667 30.6586 20.933 32.6289 24.1783 32.6289C26.1254 32.6289 26.3663 32.1913 26.3663 31.4375V28.6904C26.3663 27.8152 26.5508 27.6406 27.1674 27.6406C27.6217 27.6406 28.4006 27.8677 30.2179 29.6202C32.2949 31.6971 32.6373 32.6289 33.8055 32.6289H36.8687C37.7439 32.6289 38.1816 32.1913 37.9291 31.3277C37.6529 30.467 36.6612 29.2182 35.3454 27.7379C34.6314 26.8942 33.5605 25.9855 33.236 25.5311C32.7816 24.947 32.9115 24.6874 33.236 24.1682C33.236 24.1682 36.9681 18.9108 37.3575 17.126Z" fill="#181818"/>
</g>
<defs>
<clipPath id="clip0_613_3591">
<rect width="48" height="48" fill="white"/>
</clipPath>
</defs>
</svg>
