<svg width="48" height="48" viewBox="0 0 48 48" fill="none" xmlns="http://www.w3.org/2000/svg">
<g clip-path="url(#clip0_698_365)">
<path d="M47.5 24C47.5 36.9787 36.9787 47.5 24 47.5C11.0213 47.5 0.5 36.9787 0.5 24C0.5 11.0213 11.0213 0.5 24 0.5C36.9787 0.5 47.5 11.0213 47.5 24Z" stroke="white" stroke-opacity="0.48"/>
<path fill-rule="evenodd" clip-rule="evenodd" d="M23.9987 17.0006C20.1327 17.0006 16.9987 20.1347 16.9987 24.0006C16.9987 27.8666 20.1327 31.0006 23.9987 31.0006C27.8647 31.0006 30.9987 27.8666 30.9987 24.0006C30.9987 20.1347 27.8647 17.0006 23.9987 17.0006ZM12.332 24.0006C12.332 17.5573 17.5554 12.334 23.9987 12.334C30.442 12.334 35.6654 17.5573 35.6654 24.0006C35.6654 30.444 30.442 35.6673 23.9987 35.6673C17.5554 35.6673 12.332 30.444 12.332 24.0006Z" fill="white"/>
<path d="M35.6654 14.6667C36.954 14.6667 37.9987 13.622 37.9987 12.3333C37.9987 11.0447 36.954 10 35.6654 10C34.3767 10 33.332 11.0447 33.332 12.3333C33.332 13.622 34.3767 14.6667 35.6654 14.6667Z" fill="white"/>
</g>
<defs>
<clipPath id="clip0_698_365">
<rect width="48" height="48" fill="white"/>
</clipPath>
</defs>
</svg>
