<svg width="48" height="48" viewBox="0 0 48 48" fill="none" xmlns="http://www.w3.org/2000/svg">
<g clip-path="url(#clip0_613_3584)">
<path d="M47.5 24C47.5 36.9787 36.9787 47.5 24 47.5C11.0213 47.5 0.5 36.9787 0.5 24C0.5 11.0213 11.0213 0.5 24 0.5C36.9787 0.5 47.5 11.0213 47.5 24Z" stroke="#181818" stroke-opacity="0.88"/>
<path d="M9.98766 23.7918C9.98766 23.7918 21.9877 18.867 26.1494 17.1328C27.7449 16.4392 33.1552 14.2195 33.1552 14.2195C33.1552 14.2195 35.6524 13.2485 35.4443 15.6068C35.3749 16.578 34.82 19.9767 34.2651 23.6531C33.4327 28.8554 32.531 34.5432 32.531 34.5432C32.531 34.5432 32.3922 36.1386 31.2131 36.4161C30.0339 36.6935 28.0916 35.445 27.7449 35.1675C27.4673 34.9595 22.5425 31.838 20.7391 30.312C20.2535 29.8958 19.6986 29.0635 20.8084 28.0924C23.3055 25.8034 26.2882 22.9595 28.0916 21.156C28.924 20.3236 29.7564 18.3814 26.2882 20.7397C21.3634 24.1386 16.5079 27.3294 16.5079 27.3294C16.5079 27.3294 15.398 28.023 13.3171 27.3987C11.2361 26.7745 8.80839 25.9421 8.80839 25.9421C8.80839 25.9421 7.14375 24.9016 9.98766 23.7918Z" fill="#181818"/>
</g>
<defs>
<clipPath id="clip0_613_3584">
<rect width="48" height="48" fill="white"/>
</clipPath>
</defs>
</svg>
