<svg width="96" height="96" viewBox="0 0 96 96" fill="none" xmlns="http://www.w3.org/2000/svg">
<path d="M0 8C0 3.58172 3.58172 0 8 0H88C92.4183 0 96 3.58172 96 8V88C96 92.4183 92.4183 96 88 96H8C3.58172 96 0 92.4183 0 88V8Z" fill="#EDEDED"/>
<path fill-rule="evenodd" clip-rule="evenodd" d="M48 27.25C43.1675 27.25 39.25 31.1675 39.25 36V41.25H31.1846L32.7938 60.5606C33.0853 64.059 36.0099 66.75 39.5205 66.75H56.4789C59.9895 66.75 62.914 64.059 63.2056 60.5606L64.8148 41.25H56.75V36C56.75 31.1675 52.8325 27.25 48 27.25ZM55.25 42.75V48H56.75V42.75H63.1846L61.7107 60.436C61.484 63.157 59.2093 65.25 56.4789 65.25H39.5205C36.79 65.25 34.5154 63.157 34.2886 60.436L32.8148 42.75H39.25V48H40.75V42.75H55.25ZM55.25 41.25V36C55.25 31.9959 52.0041 28.75 48 28.75C43.9959 28.75 40.75 31.9959 40.75 36V41.25H55.25Z" fill="#181818"/>
</svg>
