<svg width="96" height="96" viewBox="0 0 96 96" fill="none" xmlns="http://www.w3.org/2000/svg">
<path d="M0 8C0 3.58172 3.58172 0 8 0H88C92.4183 0 96 3.58172 96 8V88C96 92.4183 92.4183 96 88 96H8C3.58172 96 0 92.4183 0 88V8Z" fill="#EDEDED"/>
<path fill-rule="evenodd" clip-rule="evenodd" d="M48 35.0781L62.75 45.6138V59.9998C62.75 63.7277 59.7279 66.7498 56 66.7498H40C36.2721 66.7498 33.25 63.7277 33.25 59.9998V45.6138L48 35.0781ZM34.75 46.3858V59.9998C34.75 62.8993 37.1005 65.2498 40 65.2498H56C58.8995 65.2498 61.25 62.8993 61.25 59.9998V46.3858L48 36.9215L34.75 46.3858Z" fill="#181818"/>
<path fill-rule="evenodd" clip-rule="evenodd" d="M48 28.75C43.9959 28.75 40.75 31.9959 40.75 36C40.75 40.0041 43.9959 43.25 48 43.25V44.75C43.1675 44.75 39.25 40.8325 39.25 36C39.25 31.1675 43.1675 27.25 48 27.25C52.8325 27.25 56.75 31.1675 56.75 36C56.75 37.7707 56.2233 39.4206 55.3177 40.7989L54.0641 39.9752C54.8138 38.8341 55.25 37.4691 55.25 36C55.25 31.9959 52.0041 28.75 48 28.75Z" fill="#181818"/>
</svg>
