<svg width="96" height="96" viewBox="0 0 96 96" fill="none" xmlns="http://www.w3.org/2000/svg">
<path d="M0 8C0 3.58172 3.58172 0 8 0H88C92.4183 0 96 3.58172 96 8V88C96 92.4183 92.4183 96 88 96H8C3.58172 96 0 92.4183 0 88V8Z" fill="#EDEDED"/>
<path fill-rule="evenodd" clip-rule="evenodd" d="M47.25 28.25H48C58.9076 28.25 67.75 37.0924 67.75 48C67.75 58.9076 58.9076 67.75 48 67.75C37.0924 67.75 28.25 58.9076 28.25 48H29.75C29.75 58.0792 37.9208 66.25 48 66.25C58.0792 66.25 66.25 58.0792 66.25 48C66.25 38.172 58.4814 30.1585 48.75 29.7651V48H47.25V28.25Z" fill="#181818"/>
</svg>
