<svg width="32" height="32" viewBox="0 0 32 32" fill="none" xmlns="http://www.w3.org/2000/svg">
<path fill-rule="evenodd" clip-rule="evenodd" d="M10.5804 10C8.54218 10 6.82992 11.5325 6.60484 13.5583L5.61711 22.4478C5.28802 25.4097 7.60647 28 10.5865 28H21.4139C24.3939 28 26.7124 25.4097 26.3833 22.4478L25.3956 13.5583C25.1705 11.5325 23.4582 10 21.42 10H10.5804Z" fill="#181818"/>
<path fill-rule="evenodd" clip-rule="evenodd" d="M13 9C13 7.34315 14.3431 6 16 6C17.6569 6 19 7.34315 19 9V14H21V9C21 6.23858 18.7614 4 16 4C13.2386 4 11 6.23858 11 9V14H13V9Z" fill="#181818"/>
<rect x="16" y="16" width="16" height="16" rx="4" fill="#FF0000"/>
<path d="M23.9969 28.0994C23.45 28.0994 22.9635 28.0107 22.5374 27.8331C22.1136 27.6532 21.781 27.4081 21.5395 27.098C21.298 26.7879 21.1773 26.4363 21.1773 26.0433C21.1773 25.7403 21.2459 25.4621 21.3833 25.2088C21.5229 24.9531 21.7123 24.7412 21.9514 24.5732C22.1905 24.4027 22.4581 24.2938 22.754 24.2464V24.1967C22.3657 24.1186 22.0509 23.9304 21.8094 23.6321C21.5679 23.3314 21.4472 22.9822 21.4472 22.5845C21.4472 22.2081 21.5573 21.8731 21.7774 21.5795C21.9976 21.2836 22.2994 21.0516 22.683 20.8835C23.0689 20.7131 23.5068 20.6278 23.9969 20.6278C24.4869 20.6278 24.9237 20.7131 25.3073 20.8835C25.6932 21.054 25.9962 21.2872 26.2164 21.5831C26.4365 21.8767 26.5478 22.2105 26.5502 22.5845C26.5478 22.9846 26.4247 23.3338 26.1808 23.6321C25.937 23.9304 25.6245 24.1186 25.2433 24.1967V24.2464C25.5345 24.2938 25.7985 24.4027 26.0352 24.5732C26.2744 24.7412 26.4637 24.9531 26.6034 25.2088C26.7455 25.4621 26.8177 25.7403 26.82 26.0433C26.8177 26.4363 26.6958 26.7879 26.4543 27.098C26.2128 27.4081 25.879 27.6532 25.4529 27.8331C25.0291 28.0107 24.5438 28.0994 23.9969 28.0994ZM23.9969 26.9702C24.2407 26.9702 24.4538 26.9264 24.6361 26.8388C24.8184 26.7488 24.9604 26.6257 25.0622 26.4695C25.1664 26.3108 25.2185 26.1286 25.2185 25.9226C25.2185 25.7119 25.1652 25.526 25.0587 25.3651C24.9521 25.2017 24.8077 25.0739 24.6254 24.9815C24.4432 24.8868 24.2336 24.8395 23.9969 24.8395C23.7625 24.8395 23.553 24.8868 23.3683 24.9815C23.1837 25.0739 23.0381 25.2017 22.9316 25.3651C22.8274 25.526 22.7753 25.7119 22.7753 25.9226C22.7753 26.1286 22.8262 26.3108 22.928 26.4695C23.0298 26.6257 23.173 26.7488 23.3577 26.8388C23.5423 26.9264 23.7554 26.9702 23.9969 26.9702ZM23.9969 23.7209C24.2005 23.7209 24.3816 23.6795 24.5402 23.5966C24.6988 23.5137 24.8231 23.3989 24.9131 23.2521C25.003 23.1054 25.048 22.9361 25.048 22.7443C25.048 22.5549 25.003 22.3892 24.9131 22.2472C24.8231 22.1027 24.7 21.9903 24.5438 21.9098C24.3875 21.8269 24.2052 21.7855 23.9969 21.7855C23.7909 21.7855 23.6086 21.8269 23.45 21.9098C23.2914 21.9903 23.1671 22.1027 23.0771 22.2472C22.9896 22.3892 22.9458 22.5549 22.9458 22.7443C22.9458 22.9361 22.9907 23.1054 23.0807 23.2521C23.1707 23.3989 23.295 23.5137 23.4536 23.5966C23.6122 23.6795 23.7933 23.7209 23.9969 23.7209Z" fill="white"/>
</svg>
